<svg xmlns="http://www.w3.org/2000/svg" width="1216" height="506" fill="none" viewBox="0 0 1216 506"><g clip-path="url(#clip0_66_7042)" opacity=".35"><path fill="url(#paint0_linear_66_7042)" fill-opacity=".16" stroke="url(#paint1_linear_66_7042)" d="M0.5 653C0.5 661.56 7.43959 668.5 16 668.5H1200C1208.56 668.5 1215.5 661.56 1215.5 653V16C1215.5 7.43958 1208.56 0.5 1200 0.5H16C7.4396 0.5 0.5 7.43958 0.5 16V653Z" opacity=".35"/><g clip-path="url(#clip1_66_7042)"><path fill="url(#paint2_linear_66_7042)" fill-opacity=".16" d="M24 566C24 572.627 29.3726 578 36 578H1180C1186.63 578 1192 572.627 1192 566V36C1192 29.3726 1186.63 24 1180 24H36C29.3726 24 24 29.3726 24 36V566Z"/><g clip-path="url(#clip2_66_7042)" opacity=".5"><mask id="mask0_66_7042" style="mask-type:alpha" width="679" height="334" x="-1" y="12" maskUnits="userSpaceOnUse"><line x1=".345" x2="676.655" y1="35.831" y2="35.831" stroke="#1E293B" stroke-dasharray="6.38 18.38" stroke-linecap="round" stroke-width="2.69"/><line x1=".345" x2="676.655" y1="57.889" y2="57.889" stroke="#1E293B" stroke-dasharray="6.38 18.38" stroke-linecap="round" stroke-width="2.69"/><line x1=".345" x2="676.655" y1="79.948" y2="79.948" stroke="#1E293B" stroke-dasharray="6.38 18.38" stroke-linecap="round" stroke-width="2.69"/><line x1=".345" x2="676.655" y1="102.007" y2="102.007" stroke="#1E293B" stroke-dasharray="6.38 18.38" stroke-linecap="round" stroke-width="2.69"/><line x1=".345" x2="676.655" y1="124.065" y2="124.065" stroke="#1E293B" stroke-dasharray="6.38 18.38" stroke-linecap="round" stroke-width="2.69"/><line x1=".345" x2="676.655" y1="146.124" y2="146.124" stroke="#1E293B" stroke-dasharray="6.38 18.38" stroke-linecap="round" stroke-width="2.69"/><line x1=".345" x2="676.655" y1="168.186" y2="168.186" stroke="#1E293B" stroke-dasharray="6.38 18.38" stroke-linecap="round" stroke-width="2.69"/><line x1=".345" x2="676.655" y1="190.245" y2="190.245" stroke="#1E293B" stroke-dasharray="6.38 18.38" stroke-linecap="round" stroke-width="2.69"/><line x1=".345" x2="676.655" y1="212.303" y2="212.303" stroke="#1E293B" stroke-dasharray="6.38 18.38" stroke-linecap="round" stroke-width="2.69"/><line x1=".345" x2="676.655" y1="234.362" y2="234.362" stroke="#1E293B" stroke-dasharray="6.38 18.38" stroke-linecap="round" stroke-width="2.69"/><line x1=".345" x2="676.655" y1="256.421" y2="256.421" stroke="#1E293B" stroke-dasharray="6.38 18.38" stroke-linecap="round" stroke-width="2.69"/><line x1=".345" x2="676.655" y1="278.479" y2="278.479" stroke="#1E293B" stroke-dasharray="6.38 18.38" stroke-linecap="round" stroke-width="2.69"/><line x1=".345" x2="676.655" y1="300.538" y2="300.538" stroke="#1E293B" stroke-dasharray="6.38 18.38" stroke-linecap="round" stroke-width="2.69"/><line x1=".345" x2="676.655" y1="322.596" y2="322.596" stroke="#1E293B" stroke-dasharray="6.38 18.38" stroke-linecap="round" stroke-width="2.69"/><line x1=".345" x2="676.655" y1="344.655" y2="344.655" stroke="#1E293B" stroke-dasharray="6.38 18.38" stroke-linecap="round" stroke-width="2.69"/></mask><g mask="url(#mask0_66_7042)"><rect width="685.893" height="335.019" x="26.573" y="28.902" fill="url(#paint3_linear_66_7042)"/></g></g><g clip-path="url(#clip3_66_7042)" opacity=".5"><mask id="mask1_66_7042" style="mask-type:alpha" width="679" height="334" x="588" y="12" maskUnits="userSpaceOnUse"><line x1="1.345" x2="677.655" y1="-1.345" y2="-1.345" stroke="#1E293B" stroke-dasharray="6.38 18.38" stroke-linecap="round" stroke-width="2.69" transform="matrix(-1 0 0 1 1267 37.0586)"/><line x1="1.345" x2="677.655" y1="-1.345" y2="-1.345" stroke="#1E293B" stroke-dasharray="6.38 18.38" stroke-linecap="round" stroke-width="2.69" transform="matrix(-1 0 0 1 1267 59.1172)"/><line x1="1.345" x2="677.655" y1="-1.345" y2="-1.345" stroke="#1E293B" stroke-dasharray="6.38 18.38" stroke-linecap="round" stroke-width="2.69" transform="matrix(-1 0 0 1 1267 81.1758)"/><line x1="1.345" x2="677.655" y1="-1.345" y2="-1.345" stroke="#1E293B" stroke-dasharray="6.38 18.38" stroke-linecap="round" stroke-width="2.69" transform="matrix(-1 0 0 1 1267 103.234)"/><line x1="1.345" x2="677.655" y1="-1.345" y2="-1.345" stroke="#1E293B" stroke-dasharray="6.38 18.38" stroke-linecap="round" stroke-width="2.69" transform="matrix(-1 0 0 1 1267 125.293)"/><line x1="1.345" x2="677.655" y1="-1.345" y2="-1.345" stroke="#1E293B" stroke-dasharray="6.38 18.38" stroke-linecap="round" stroke-width="2.69" transform="matrix(-1 0 0 1 1267 147.352)"/><line x1="1.345" x2="677.655" y1="-1.345" y2="-1.345" stroke="#1E293B" stroke-dasharray="6.38 18.38" stroke-linecap="round" stroke-width="2.69" transform="matrix(-1 0 0 1 1267 169.414)"/><line x1="1.345" x2="677.655" y1="-1.345" y2="-1.345" stroke="#1E293B" stroke-dasharray="6.38 18.38" stroke-linecap="round" stroke-width="2.69" transform="matrix(-1 0 0 1 1267 191.473)"/><line x1="1.345" x2="677.655" y1="-1.345" y2="-1.345" stroke="#1E293B" stroke-dasharray="6.38 18.38" stroke-linecap="round" stroke-width="2.69" transform="matrix(-1 0 0 1 1267 213.531)"/><line x1="1.345" x2="677.655" y1="-1.345" y2="-1.345" stroke="#1E293B" stroke-dasharray="6.38 18.38" stroke-linecap="round" stroke-width="2.69" transform="matrix(-1 0 0 1 1267 235.59)"/><line x1="1.345" x2="677.655" y1="-1.345" y2="-1.345" stroke="#1E293B" stroke-dasharray="6.38 18.38" stroke-linecap="round" stroke-width="2.69" transform="matrix(-1 0 0 1 1267 257.648)"/><line x1="1.345" x2="677.655" y1="-1.345" y2="-1.345" stroke="#1E293B" stroke-dasharray="6.38 18.38" stroke-linecap="round" stroke-width="2.69" transform="matrix(-1 0 0 1 1267 279.707)"/><line x1="1.345" x2="677.655" y1="-1.345" y2="-1.345" stroke="#1E293B" stroke-dasharray="6.38 18.38" stroke-linecap="round" stroke-width="2.69" transform="matrix(-1 0 0 1 1267 301.766)"/><line x1="1.345" x2="677.655" y1="-1.345" y2="-1.345" stroke="#1E293B" stroke-dasharray="6.38 18.38" stroke-linecap="round" stroke-width="2.69" transform="matrix(-1 0 0 1 1267 323.824)"/><line x1="1.345" x2="677.655" y1="-1.345" y2="-1.345" stroke="#1E293B" stroke-dasharray="6.38 18.38" stroke-linecap="round" stroke-width="2.69" transform="matrix(-1 0 0 1 1267 345.883)"/></mask><g mask="url(#mask1_66_7042)"><rect width="685.893" height="335.019" fill="url(#paint4_linear_66_7042)" transform="matrix(-1 0 0 1 1239.43 28.7852)"/></g></g></g><path stroke="url(#paint5_linear_66_7042)" d="M24.5 566C24.5 572.351 29.6487 577.5 36 577.5H1180C1186.35 577.5 1191.5 572.351 1191.5 566V36C1191.5 29.6487 1186.35 24.5 1180 24.5H36C29.6487 24.5 24.5 29.6487 24.5 36V566Z"/></g><defs><linearGradient id="paint0_linear_66_7042" x1="517.333" x2="522.791" y1=".861" y2="290.747" gradientUnits="userSpaceOnUse"><stop stop-color="#64748B"/><stop offset="1" stop-color="#64748B" stop-opacity="0"/></linearGradient><linearGradient id="paint1_linear_66_7042" x1="517.333" x2="520.565" y1=".861" y2="298.95" gradientUnits="userSpaceOnUse"><stop stop-color="#64748B"/><stop offset="1" stop-color="#64748B" stop-opacity="0"/></linearGradient><linearGradient id="paint2_linear_66_7042" x1="520.912" x2="524.809" y1="24.713" y2="264.79" gradientUnits="userSpaceOnUse"><stop stop-color="#64748B"/><stop offset="1" stop-color="#64748B" stop-opacity="0"/></linearGradient><linearGradient id="paint3_linear_66_7042" x1="369.52" x2="435.007" y1="28.902" y2="166.77" gradientUnits="userSpaceOnUse"><stop stop-color="#64748B"/><stop offset="1" stop-color="#64748B" stop-opacity="0"/></linearGradient><linearGradient id="paint4_linear_66_7042" x1="342.947" x2="408.434" y1="0" y2="137.868" gradientUnits="userSpaceOnUse"><stop stop-color="#64748B"/><stop offset="1" stop-color="#64748B" stop-opacity="0"/></linearGradient><linearGradient id="paint5_linear_66_7042" x1="520.912" x2="523.22" y1="24.713" y2="271.568" gradientUnits="userSpaceOnUse"><stop stop-color="#64748B"/><stop offset="1" stop-color="#64748B" stop-opacity="0"/></linearGradient><clipPath id="clip0_66_7042"><rect width="1216" height="506" fill="#fff" transform="matrix(1 0 0 -1 0 506)"/></clipPath><clipPath id="clip1_66_7042"><path fill="#fff" d="M24 566C24 572.627 29.3726 578 36 578H1180C1186.63 578 1192 572.627 1192 566V36C1192 29.3726 1186.63 24 1180 24H36C29.3726 24 24 29.3726 24 36V566Z"/></clipPath><clipPath id="clip2_66_7042"><rect width="679" height="330.883" fill="#fff" transform="translate(-1 15.1172)"/></clipPath><clipPath id="clip3_66_7042"><rect width="609" height="331" fill="#fff" transform="matrix(-1 0 0 1 1267 15)"/></clipPath></defs></svg>