<svg xmlns="http://www.w3.org/2000/svg" width="1217" height="342" fill="none" viewBox="0 0 1217 342"><g clip-path="url(#clip0_66_6940)" opacity=".2"><rect width="1164" height="258" x=".5" y="-.5" fill="url(#paint0_linear_66_6940)" fill-opacity=".16" stroke="url(#paint1_linear_66_6940)" rx="7.5" transform="matrix(1 0 0 -1 26 284)"/><rect width="1216" height="284" x=".5" y="-.5" fill="url(#paint2_linear_66_6940)" fill-opacity=".16" stroke="url(#paint3_linear_66_6940)" opacity=".5" rx="11.5" transform="matrix(1 0 0 -1 0 284)"/><g clip-path="url(#clip1_66_6940)" opacity=".5"><mask id="mask0_66_6940" style="mask-type:alpha" width="679" height="334" x="538" y="8" maskUnits="userSpaceOnUse"><line x1="1.345" x2="677.655" y1="-1.345" y2="-1.345" stroke="#1E293B" stroke-dasharray="6.38 18.38" stroke-linecap="round" stroke-width="2.69" transform="matrix(-1 0 0 1 1217 33.0586)"/><line x1="1.345" x2="677.655" y1="-1.345" y2="-1.345" stroke="#1E293B" stroke-dasharray="6.38 18.38" stroke-linecap="round" stroke-width="2.69" transform="matrix(-1 0 0 1 1217 55.1172)"/><line x1="1.345" x2="677.655" y1="-1.345" y2="-1.345" stroke="#1E293B" stroke-dasharray="6.38 18.38" stroke-linecap="round" stroke-width="2.69" transform="matrix(-1 0 0 1 1217 77.1758)"/><line x1="1.345" x2="677.655" y1="-1.345" y2="-1.345" stroke="#1E293B" stroke-dasharray="6.38 18.38" stroke-linecap="round" stroke-width="2.69" transform="matrix(-1 0 0 1 1217 99.2363)"/><line x1="1.345" x2="677.655" y1="-1.345" y2="-1.345" stroke="#1E293B" stroke-dasharray="6.38 18.38" stroke-linecap="round" stroke-width="2.69" transform="matrix(-1 0 0 1 1217 121.295)"/><line x1="1.345" x2="677.655" y1="-1.345" y2="-1.345" stroke="#1E293B" stroke-dasharray="6.38 18.38" stroke-linecap="round" stroke-width="2.69" transform="matrix(-1 0 0 1 1217 143.354)"/><line x1="1.345" x2="677.655" y1="-1.345" y2="-1.345" stroke="#1E293B" stroke-dasharray="6.38 18.38" stroke-linecap="round" stroke-width="2.69" transform="matrix(-1 0 0 1 1217 165.412)"/><line x1="1.345" x2="677.655" y1="-1.345" y2="-1.345" stroke="#1E293B" stroke-dasharray="6.38 18.38" stroke-linecap="round" stroke-width="2.69" transform="matrix(-1 0 0 1 1217 187.471)"/><line x1="1.345" x2="677.655" y1="-1.345" y2="-1.345" stroke="#1E293B" stroke-dasharray="6.38 18.38" stroke-linecap="round" stroke-width="2.69" transform="matrix(-1 0 0 1 1217 209.529)"/><line x1="1.345" x2="677.655" y1="-1.345" y2="-1.345" stroke="#1E293B" stroke-dasharray="6.38 18.38" stroke-linecap="round" stroke-width="2.69" transform="matrix(-1 0 0 1 1217 231.588)"/><line x1="1.345" x2="677.655" y1="-1.345" y2="-1.345" stroke="#1E293B" stroke-dasharray="6.38 18.38" stroke-linecap="round" stroke-width="2.69" transform="matrix(-1 0 0 1 1217 253.648)"/><line x1="1.345" x2="677.655" y1="-1.345" y2="-1.345" stroke="#1E293B" stroke-dasharray="6.38 18.38" stroke-linecap="round" stroke-width="2.69" transform="matrix(-1 0 0 1 1217 275.707)"/><line x1="1.345" x2="677.655" y1="-1.345" y2="-1.345" stroke="#1E293B" stroke-dasharray="6.38 18.38" stroke-linecap="round" stroke-width="2.69" transform="matrix(-1 0 0 1 1217 297.766)"/><line x1="1.345" x2="677.655" y1="-1.345" y2="-1.345" stroke="#1E293B" stroke-dasharray="6.38 18.38" stroke-linecap="round" stroke-width="2.69" transform="matrix(-1 0 0 1 1217 319.824)"/><line x1="1.345" x2="677.655" y1="-1.345" y2="-1.345" stroke="#1E293B" stroke-dasharray="6.38 18.38" stroke-linecap="round" stroke-width="2.69" transform="matrix(-1 0 0 1 1217 341.883)"/></mask><g mask="url(#mask0_66_6940)"><rect width="685.893" height="335.019" fill="url(#paint4_linear_66_6940)" transform="matrix(-1 0 0 1 1189.43 24.7871)"/></g></g></g><defs><linearGradient id="paint0_linear_66_6940" x1="495.636" x2="489.271" y1="258.667" y2="194.903" gradientUnits="userSpaceOnUse"><stop stop-color="#64748B"/><stop offset="1" stop-color="#64748B" stop-opacity="0"/></linearGradient><linearGradient id="paint1_linear_66_6940" x1="784" x2="756.006" y1="240" y2="114.669" gradientUnits="userSpaceOnUse"><stop stop-color="#64748B"/><stop offset="1" stop-color="#64748B" stop-opacity="0"/></linearGradient><linearGradient id="paint2_linear_66_6940" x1="517.759" x2="518.749" y1="284.633" y2="161.103" gradientUnits="userSpaceOnUse"><stop stop-color="#64748B"/><stop offset="1" stop-color="#64748B" stop-opacity="0"/></linearGradient><linearGradient id="paint3_linear_66_6940" x1="818.994" x2="786.714" y1="264.093" y2="126.894" gradientUnits="userSpaceOnUse"><stop stop-color="#64748B"/><stop offset="1" stop-color="#64748B" stop-opacity="0"/></linearGradient><linearGradient id="paint4_linear_66_6940" x1="342.947" x2="408.434" y1="0" y2="137.868" gradientUnits="userSpaceOnUse"><stop stop-color="#64748B"/><stop offset="1" stop-color="#64748B" stop-opacity="0"/></linearGradient><clipPath id="clip0_66_6940"><rect width="1217" height="342" fill="#fff" transform="matrix(1 0 0 -1 0 342)"/></clipPath><clipPath id="clip1_66_6940"><rect width="679" height="330.883" fill="#fff" transform="matrix(-1 0 0 1 1217 11)"/></clipPath></defs></svg>